<svg xmlns="http://www.w3.org/2000/svg" xmlns:xlink="http://www.w3.org/1999/xlink" contentStyleType="text/css" height="229px" preserveAspectRatio="none" style="width:338px;height:229px;background:#FFFFFF;" version="1.1" viewBox="0 0 338 229" width="338px" zoomAndPan="magnify"><title>CloudEvent</title><defs/><g><text fill="#888888" font-family="sans-serif" font-size="10" lengthAdjust="spacing" textLength="40.2051" x="290.6738" y="9.2822">Schema</text><text fill="#000000" font-family="sans-serif" font-size="14" font-weight="bold" lengthAdjust="spacing" textLength="89.5234" x="120.6777" y="35.6357">CloudEvent</text><!--class CloudEvent--><g id="elem_CloudEvent"><rect codeLine="5" fill="#F1F1F1" height="145.7813" id="CloudEvent" rx="2.5" ry="2.5" style="stroke:#181818;stroke-width:0.5;" width="191.7646" x="70.0571" y="56.9375"/><ellipse cx="121.6411" cy="72.9375" fill="#ADD1B2" rx="11" ry="11" style="stroke:#181818;stroke-width:1.0;"/><path d="M124.6099,78.5781 Q124.0317,78.875 123.3911,79.0156 Q122.7505,79.1719 122.0474,79.1719 Q119.5474,79.1719 118.2192,77.5313 Q116.9067,75.875 116.9067,72.75 Q116.9067,69.625 118.2192,67.9688 Q119.5474,66.3125 122.0474,66.3125 Q122.7505,66.3125 123.3911,66.4688 Q124.0474,66.625 124.6099,66.9219 L124.6099,69.6406 Q123.9849,69.0625 123.3911,68.7969 Q122.7974,68.5156 122.1724,68.5156 Q120.8286,68.5156 120.1411,69.5938 Q119.4536,70.6563 119.4536,72.75 Q119.4536,74.8438 120.1411,75.9219 Q120.8286,76.9844 122.1724,76.9844 Q122.7974,76.9844 123.3911,76.7188 Q123.9849,76.4375 124.6099,75.8594 L124.6099,78.5781 Z " fill="#000000"/><text fill="#000000" font-family="sans-serif" font-size="14" lengthAdjust="spacing" textLength="80.0967" x="142.1411" y="77.7842">CloudEvent</text><line style="stroke:#181818;stroke-width:0.5;" x1="71.0571" x2="260.8218" y1="88.9375" y2="88.9375"/><ellipse cx="81.0571" cy="102.5859" fill="none" rx="3" ry="3" style="stroke:#038048;stroke-width:1.0;"/><text fill="#000000" font-family="sans-serif" font-size="14" lengthAdjust="spacing" textLength="133.123" x="90.0571" y="105.9326">specversion: string</text><ellipse cx="81.0571" cy="118.8828" fill="none" rx="3" ry="3" style="stroke:#038048;stroke-width:1.0;"/><text fill="#000000" font-family="sans-serif" font-size="14" lengthAdjust="spacing" textLength="62.1318" x="90.0571" y="122.2295">id: string</text><ellipse cx="81.0571" cy="135.1797" fill="none" rx="3" ry="3" style="stroke:#038048;stroke-width:1.0;"/><text fill="#000000" font-family="sans-serif" font-size="14" lengthAdjust="spacing" textLength="96.1543" x="90.0571" y="138.5264">source: string</text><ellipse cx="81.0571" cy="151.4766" fill="none" rx="3" ry="3" style="stroke:#038048;stroke-width:1.0;"/><text fill="#000000" font-family="sans-serif" font-size="14" lengthAdjust="spacing" textLength="80.6299" x="90.0571" y="154.8232">type: string</text><ellipse cx="81.0571" cy="167.7734" fill="none" rx="3" ry="3" style="stroke:#038048;stroke-width:1.0;"/><text fill="#000000" font-family="sans-serif" font-size="14" lengthAdjust="spacing" textLength="165.7646" x="90.0571" y="171.1201">datacontenttype: string</text><ellipse cx="81.0571" cy="184.0703" fill="none" rx="3" ry="3" style="stroke:#038048;stroke-width:1.0;"/><text fill="#000000" font-family="sans-serif" font-size="14" lengthAdjust="spacing" textLength="77.6563" x="90.0571" y="187.417">data: array</text><line style="stroke:#181818;stroke-width:0.5;" x1="71.0571" x2="260.8218" y1="194.7188" y2="194.7188"/></g><text fill="#888888" font-family="sans-serif" font-size="10" lengthAdjust="spacing" textLength="330.8789" x="0" y="219.001">Common Gateway Plugin | Commongateway | Vrijbrptozgwbundle</text><!--SRC=[RSsn3i8m30JGFL_XdJ_eYX0h4XAxcvWqABKhnoagb7-de0vKOhntqfqbozJ0FaiDXv7Ot5N4I1UIlXU68nhTSO9JhZ4npAl7bMUuQBgrEfWyuhsj73A1wmZ3P-FiE-hHEP-nb9yJU3g07PI1_4XQad03nJHn_7eAcrYaggSDsJHi8Q2X5xPb_6_N0AhYv5vl]--></g></svg>